# xmcd CD database file
#
# Track frame offsets:
#	150
#	1930
#	25837
#	42297
#	54127
#	75530
#	89195
#	121895
#	138830
#	176805
#	191887
#	204850
#	236665
#	261355
#
# Disc length: 3815 seconds
#
# Revision: 0
# Processed by: cddbd v1.4PL0 Copyright (c) Steve Scherf et al.
# Submitted via: CDex 1.50Beta6
#
DISCID=b70ee50e
DTITLE=Les Celestins - Au Cheval Blanc
DYEAR=1990
DGENRE=Jazz
TTITLE0=Ambiance Cheval Blanc
TTITLE1=Struttin with some Barbecue
TTITLE2=Doctor Jazz
TTITLE3=Speakeasy Blues
TTITLE4=Avalon
TTITLE5=When Youre Smiling
TTITLE6=Saint James Infirmary
TTITLE7=Original dixieland one step
TTITLE8=I cant give you anything but love
TTITLE9=Kansas City Stomp
TTITLE10=Sorry
TTITLE11=Please dont talk about me
TTITLE12=Sweet Georgia Brown
TTITLE13=Royal Garden Blues
EXTD=YEAR: 1990
EXTT0=
EXTT1=
EXTT2=
EXTT3=
EXTT4=
EXTT5=
EXTT6=
EXTT7=
EXTT8=
EXTT9=
EXTT10=
EXTT11=
EXTT12=
EXTT13=
PLAYORDER=
